<svg id="New_Layer" data-name="New Layer" xmlns="http://www.w3.org/2000/svg" viewBox="0 0 110.56 110.65"><defs><style>.cls-1{fill:#e4cfac;}.cls-1,.cls-2,.cls-3,.cls-4{fill-rule:evenodd;}.cls-2{fill:#615958;}.cls-3{fill:#080405;}.cls-4{fill:#1d1d1b;}</style></defs><path class="cls-1" d="M130.6,20.08c-2.29,1.2-2.89,3.09-2.89,8.57v5l-1.35.35a26.58,26.58,0,0,0-4.23,1.59l-2.89,1.3-3.68-3.54c-3.74-3.54-5.68-4.48-7.87-3.83-.65.19-3.79,2.93-7,6.12-7.92,7.82-8.07,8.87-2,15.09L102,54.15,100.67,57a30.6,30.6,0,0,0-1.6,4.23l-.35,1.39h-5c-8.61,0-9.36,1-9.36,12s.75,12,9.36,12h5l.35,1.34a29,29,0,0,0,1.6,4.29L102,95l-3.29,3.44c-6,6.18-5.87,7.27,1.8,14.89,4,4,5.87,5.53,6.42,5.33,2-.8,1.45-1.89-3.83-7.22-2.89-2.94-5.23-5.73-5.23-6.23s1.79-2.69,4-4.93,4-4.48,4-4.93a14.38,14.38,0,0,0-1.45-3.73,33.65,33.65,0,0,1-2.09-5.08c-1-3.54-1-3.49-7.37-3.49q-5.83,0-6.43-.6c-.84-.84-.84-14.89,0-15.73q.6-.6,6.43-.6c6.42,0,6.37.05,7.37-3.49a33.65,33.65,0,0,1,2.09-5.08,14.38,14.38,0,0,0,1.45-3.73c0-.45-1.8-2.69-4-4.93s-4-4.48-4-5,2.29-3.19,5.13-6,5.52-5.13,6-5.13,2.74,1.8,5,4,4.48,4,4.93,4a14.79,14.79,0,0,0,3.74-1.44,33,33,0,0,1,5.08-2.1c3.53-1,3.48-.94,3.48-7.37q0-5.82.6-6.42c.4-.4,2.89-.6,7.87-.6s7.47.2,7.87.6.6,2.54.6,6.42c0,6.43,0,6.38,3.48,7.37a33,33,0,0,1,5.08,2.1,14.79,14.79,0,0,0,3.74,1.44c.45,0,2.69-1.79,4.93-4s4.48-4,5-4c1.14,0,11.15,10,11.15,11.16,0,.5-1.79,2.74-4,5s-4,4.48-4,4.93A14.24,14.24,0,0,0,175,57.53a33.65,33.65,0,0,1,2.09,5.08c1,3.54.95,3.49,7.37,3.49q5.83,0,6.43.6c.84.84.84,14.89,0,15.73q-.6.6-6.43.6c-6.42,0-6.37,0-7.37,3.49A33.65,33.65,0,0,1,175,91.6a14.24,14.24,0,0,0-1.44,3.73c0,.45,1.79,2.69,4,4.93s4,4.49,4,4.93-2.34,3.29-5.23,6.23c-3.68,3.68-5.18,5.58-5,6.12.8,1.95,1.9,1.35,7.52-4.23,7.72-7.57,7.87-8.66,1.85-14.89L177.36,95l1.29-2.83a31.1,31.1,0,0,0,1.6-4.24l.35-1.39h5c8.61,0,9.36-1,9.36-12s-.75-12-9.36-12h-5l-.35-1.39a28.21,28.21,0,0,0-1.6-4.18l-1.29-2.89,3.54-3.69c3.53-3.73,4.48-5.68,3.83-7.87-.2-.64-2.94-3.78-6.13-7-7.81-7.92-8.86-8.07-15.08-2l-3.44,3.29-2.84-1.3A30.74,30.74,0,0,0,153,34l-1.4-.35v-5c0-8.67-.94-9.36-12.05-9.36C133.78,19.34,131.59,19.49,130.6,20.08Z" transform="translate(-84.38 -19.29)"/><path class="cls-2" d="M133.19,46C122.38,48.27,113.27,57.53,111,68.59a30.55,30.55,0,0,0,3.39,20.87c2.09,3.38,3,4.08,4.23,2.88.85-.84.8-1-1.19-4.73-4.58-8.46-4.78-17.13-.5-25.2a27,27,0,0,1,16.83-13c18.58-4.39,35.46,12.5,31.08,31.07a38,38,0,0,1-2.89,7.12c-2,3.69-2,3.89-1.19,4.73.64.7,1,.75,1.74.35,1.34-.84,4-5.62,5.13-9.16A29.41,29.41,0,0,0,133.19,46Z" transform="translate(-84.38 -19.29)"/><path class="cls-3" d="M133.83,60c-3,1.05-6.82,4.69-8.46,8-1.2,2.39-1.4,3.49-1.4,6.82s.2,4.44,1.4,6.83a17,17,0,0,0,7.42,7.47c1.79.94,2.89,1.14,6.87,1.14s5.08-.2,6.87-1.14A17,17,0,0,0,154,81.64c1.15-2.39,1.4-3.49,1.4-6.83s-.2-4.43-1.4-6.82c-1.69-3.48-5.47-7-8.66-8.07A21.94,21.94,0,0,0,133.83,60Zm10.71,3.44a13.77,13.77,0,0,1,6.23,5.93c1.49,2.79,1.49,8.16,0,11A11.91,11.91,0,0,1,139.66,87a11.74,11.74,0,0,1-11-6.58,12.61,12.61,0,0,1,5.78-16.88A15.56,15.56,0,0,1,144.54,63.41Z" transform="translate(-84.38 -19.29)"/><path class="cls-4" d="M132.59,92.54c-1.25.7-1.15,1.15,1,5.43,1.9,3.74,1.9,3.74,1.35,6.73l-.6,3-.65-1.49c-.29-.85-1.44-3.79-2.49-6.52-2.83-7.62-2.64-7.38-5.72-7-5.23.55-11,5-13.5,10.46-1.44,3.09-1.44,3.19-1.59,14.2-.15,8.06,0,11.3.45,11.85.84,1,56.82,1,57.67,0,.44-.55.59-3.79.44-11.85-.15-11-.15-11.11-1.59-14.2-2.54-5.48-8.27-9.91-13.5-10.46-3.08-.35-2.88-.59-5.72,7-1,2.73-2.19,5.67-2.49,6.52l-.65,1.49-.6-3c-.55-3-.55-3,1.35-6.73,2.19-4.33,2.24-4.73.94-5.48S133.73,91.85,132.59,92.54Zm10.06,3.19a19.37,19.37,0,0,1-1.25,2.69l-1.19,2.44,1.19,6.52,1.2,6.58-1.3,3.73a17,17,0,0,1-1.64,3.69,17,17,0,0,1-1.64-3.69l-1.3-3.73,1.2-6.58,1.19-6.52-1.19-2.44a19.37,19.37,0,0,1-1.25-2.69,8.84,8.84,0,0,1,3-.25A8.84,8.84,0,0,1,142.65,95.73Z" transform="translate(-84.38 -19.29)"/><path class="cls-1" d="M136.67,95.73a15.31,15.31,0,0,1,6,0l-2.44,5.13q1.18,6.56,2.39,13.1c-.35,1.17-.78,2.42-1.3,3.73s-1.08,2.58-1.64,3.69a41.06,41.06,0,0,1-1.72-3.82c-.5-1.27-.9-2.48-1.22-3.6q1.2-6.55,2.39-13.1Z" transform="translate(-84.38 -19.29)"/></svg>